<svg 
          width="19.200000762939453" 
          height="12.226415634155273" fill="none" 
          xmlns="http://www.w3.org/2000/svg">
          <path d="M 19.200000762939453 1.1462262868881226 C 19.200000762939453 0.5131829977035522 18.722436904907227 0 18.133333206176758 0 L 17.066667556762695 0 C 16.477563858032227 0 16 0.5131829977035522 16 1.1462262868881226 L 16 11.080187797546387 C 16 11.713231086730957 16.477563858032227 12.22641372680664 17.066667556762695 12.22641372680664 L 18.133333206176758 12.22641372680664 C 18.722436904907227 12.22641372680664 19.200000762939453 11.713231086730957 19.200000762939453 11.080187797546387 L 19.200000762939453 1.1462262868881226 Z M 11.765885353088379 2.445281982421875 L 12.832551956176758 2.445281982421875 C 13.421655654907227 2.445281982421875 13.899218559265137 2.9707813262939453 13.899218559265137 3.6190178394317627 L 13.899218559265137 11.052678108215332 C 13.899218559265137 11.700915336608887 13.421655654907227 12.226414680480957 12.832551956176758 12.226414680480957 L 11.765885353088379 12.226414680480957 C 11.17678165435791 12.226414680480957 10.69921875 11.700915336608887 10.69921875 11.052678108215332 L 10.69921875 3.6190178394317627 C 10.69921875 2.9707813262939453 11.17678165435791 2.445281982421875 11.765885353088379 2.445281982421875 Z M 7.434114456176758 5.094329833984375 L 6.367447853088379 5.094329833984375 C 5.77834415435791 5.094329833984375 5.30078125 5.626519680023193 5.30078125 6.283009052276611 L 5.30078125 11.037725448608398 C 5.30078125 11.694214820861816 5.77834415435791 12.226405143737793 6.367447853088379 12.226405143737793 L 7.434114456176758 12.226405143737793 C 8.023218154907227 12.226405143737793 8.500781059265137 11.694214820861816 8.500781059265137 11.037725448608398 L 8.500781059265137 6.283009052276611 C 8.500781059265137 5.626519680023193 8.023218154907227 5.094329833984375 7.434114456176758 5.094329833984375 Z M 2.133333444595337 7.539623260498047 L 1.0666667222976685 7.539623260498047 C 0.47756296396255493 7.539623260498047 0 8.064209938049316 0 8.711321830749512 L 0 11.054718017578125 C 0 11.701828956604004 0.47756296396255493 12.226415634155273 1.0666667222976685 12.226415634155273 L 2.133333444595337 12.226415634155273 C 2.7224371433258057 12.226415634155273 3.200000047683716 11.701828956604004 3.200000047683716 11.054718017578125 L 3.200000047683716 8.711321830749512 C 3.200000047683716 8.064209938049316 2.7224371433258057 7.539623260498047 2.133333444595337 7.539623260498047 Z" fill="rgb(0,0,0)"/>
        </svg>