<svg 
          width="16" 
          height="16" fill="none" 
          xmlns="http://www.w3.org/2000/svg">
          <path d="M 7.999999516032981 12.935186242794108 L 4.244675818321685 15.784457039030416 C 4.058601207062144 15.935745719028406 3.855610587310917 16.007355023988673 3.635704231299454 15.999286294326158 C 3.4157978752879905 15.991217564663643 3.2212655320140553 15.928012792897665 3.0521067931304753 15.809671433281142 C 2.8829480542468953 15.69133007366462 2.752019110405702 15.531636092105543 2.659320127970559 15.330590247577476 C 2.566621145535416 15.129544403049408 2.562223004501135 14.911016707157279 2.6461257351156546 14.675006378383758 L 4.09243237710323 10.010272263805623 L 0.4132305814887939 7.413150219413996 C 0.2102400978532917 7.278671391079207 0.08337105503358369 7.102168331859671 0.03262343412470814 6.883640245208877 C -0.018124186784167405 6.665112158558083 -0.009666156071378364 6.463393547841004 0.05799734099445059 6.278485164516612 C 0.12566083806027956 6.09357678119222 0.24407184260521383 5.929512712521614 0.4132305814887939 5.786292763125463 C 0.5823893203723739 5.643072813729312 0.785379758635968 5.571799150854554 1.0222019870233923 5.572471544953959 L 5.564114135878096 5.572471544953959 L 7.035794926718924 0.7312338451350064 C 7.120374296160714 0.4958959068210111 7.251640996047683 0.3150220165455635 7.429595986751886 0.18861191881261305 C 7.60755097745609 0.06220182107966257 7.797685663662764 -0.0006670576408460703 7.999999516032981 0.000005336458558305277 C 8.202313368403196 0.0006777305579626808 8.392786302184652 0.06388297757862846 8.57141792415414 0.1896206773374642 C 8.750049546123629 0.3153583770963 8.880978489964821 0.4958959068210111 8.964204589314056 0.7312338451350064 L 10.435885380154884 5.572471544953959 L 14.977797770993098 5.572471544953959 C 15.214619999380522 5.572471544953959 15.417610861115259 5.644081812721034 15.586769599998838 5.787301762117186 C 15.755928338882418 5.930521711513337 15.874339831175366 6.0942491866809245 15.942003328241194 6.278485164516612 C 16.009666825307022 6.462721142352299 16.018124372052792 6.664439768098558 15.967376751143917 6.883640245208877 C 15.916629130235041 7.102840722319196 15.789760083634341 7.279343796567912 15.586769599998838 7.413150219413996 L 11.90756713892975 10.010272263805623 L 13.353873538933815 14.675006378383758 C 13.438452908375606 14.910344316697753 13.43439397528816 15.128872012589882 13.341694992853016 15.330590247577476 C 13.248996010417873 15.53230848256507 13.11772833503488 15.692002464124144 12.947892964886014 15.809671433281142 C 12.778057594737149 15.92734040243814 12.583524283529176 15.990545171386147 12.364294558782998 15.999286294326158 C 12.14506483403682 16.008027417266167 11.942074940236122 15.936418109487931 11.755323697711296 15.784457039030416 L 7.999999516032981 12.935186242794108 Z" fill="rgb(206.46810740232468,201.12478852272034,46.16857901215553)"/>
        </svg>