<svg 
          width="37" 
          height="30" fill="none" 
          xmlns="http://www.w3.org/2000/svg">
          <path d="M 18.5 30 C 18.068333331495523 30 17.629266868531705 29.92927865094427 17.18280019760132 29.787835940186845 C 16.736333526670936 29.64639322942942 16.342899294942615 29.420082320028584 16.002499294281005 29.108908358891444 L 12.81125123500824 26.43564314766568 C 9.542917931079865 23.691654627259858 6.590317791700363 20.96916505400845 3.9534510374069214 18.268175034917697 C 1.3165842831134795 15.567185015826945 -0.0012324684300310197 12.589531667434821 8.648900930552373e-7 9.33521782243713 C 8.648900930552373e-7 6.676094845022403 0.9712510585784915 4.455444851405411 2.9137509703636173 2.673266829909081 C 4.856250882148743 0.8910888084127506 7.276667445898056 -7.53758157448041e-16 10.175000882148742 0 C 11.80916753411293 0 13.350833281874657 0.31796287072299345 14.8 0.9538892697590784 C 16.249166718125345 1.5898156687951635 17.482499977946283 2.459971411624585 18.5 3.5643560429926606 C 19.517500022053717 2.461102972431341 20.75083328187466 1.5915132629245659 22.200000000000003 0.9555868638884809 C 23.649166718125347 0.31966046485239596 25.190833348035817 0.0011315416402177746 26.825000000000003 0 C 29.72333343625069 0 32.14374867677689 0.8910888084127506 34.086248588562015 2.673266829909081 C 36.02874850034714 4.455444851405411 37 6.676094845022403 37 9.33521782243713 C 37 12.588400005460358 35.68958325982094 15.572841302345115 33.06875 18.288541308420573 C 30.447916740179064 21.00424131449603 27.472500264644626 23.734086791749164 24.1425003528595 26.478075312154985 L 20.997500705718995 29.108908358891444 C 20.658334031701088 29.420082320028584 20.2655172213912 29.64639322942942 19.819050550460815 29.787835940186845 C 19.37258387953043 29.92927865094427 18.932899995148183 30 18.5 30 Z" fill="rgb(0,0,0)"/>
        </svg>