<svg 
          width="35" 
          height="35" fill="none" 
          xmlns="http://www.w3.org/2000/svg">
          <path d="M 17.49999814563347 20.999997997284126 C 16.949072281949014 20.999997997284126 16.48759106346993 20.83199782930633 16.11555405557907 20.49599785842916 C 15.743517047688211 20.159997887551988 15.556850203374802 19.74466476044276 15.55555390722975 19.249998164177118 C 15.554257611084699 18.755331567911476 15.74092446943262 18.339998440802244 16.11555405557907 18.003998469925072 C 16.490183641725523 17.6679984990479 16.951664860204605 17.499998331070106 17.49999814563347 17.499998331070106 C 18.048331431062334 17.499998331070106 18.51046159090343 17.6679984990479 18.886387466177677 18.003998469925072 C 19.262313341451925 18.339998440802244 19.44833127269871 18.755331567911476 19.44444238403719 19.249998164177118 C 19.440553495375667 19.74466476044276 19.253886636348657 20.16058193478399 18.884442235687867 20.497748565888543 C 18.514997835027078 20.834915196993094 18.05351658757352 21.002331330369945 17.49999814563347 20.999997997284126 Z M 9.722221192018594 20.999997997284126 C 9.171295328334137 20.999997997284126 8.709814109855058 20.83199782930633 8.337777101964198 20.49599785842916 C 7.965740094073339 20.159997887551988 7.779073249759928 19.74466476044276 7.777776953614875 19.249998164177118 C 7.776480657469823 18.755331567911476 7.963147515817747 18.339998440802244 8.337777101964198 18.003998469925072 C 8.712406688110649 17.6679984990479 9.17388790658973 17.499998331070106 9.722221192018594 17.499998331070106 C 10.270554477447458 17.499998331070106 10.732684637288555 17.6679984990479 11.108610512562803 18.003998469925072 C 11.484536387837052 18.339998440802244 11.670554319083832 18.755331567911476 11.666665430422313 19.249998164177118 C 11.662776541760794 19.74466476044276 11.47610968273378 20.16058193478399 11.10666528207299 20.497748565888543 C 10.7372208814122 20.834915196993094 10.275739633958644 21.002331330369945 9.722221192018594 20.999997997284126 Z M 25.277775099248345 20.999997997284126 C 24.72684923556389 20.999997997284126 24.265368017084807 20.83199782930633 23.893331009193947 20.49599785842916 C 23.521294001303087 20.159997887551988 23.33462715698968 19.74466476044276 23.333330860844626 19.249998164177118 C 23.332034564699573 18.755331567911476 23.518701423047496 18.339998440802244 23.893331009193947 18.003998469925072 C 24.267960595340398 17.6679984990479 24.72944181381948 17.499998331070106 25.277775099248345 17.499998331070106 C 25.82610838467721 17.499998331070106 26.288236690151777 17.6679984990479 26.664162565426025 18.003998469925072 C 27.040088440700274 18.339998440802244 27.226108226313585 18.755331567911476 27.222219337652064 19.249998164177118 C 27.218330448990542 19.74466476044276 27.031663589963532 20.16058193478399 26.662219189302743 20.497748565888543 C 26.292774788641953 20.834915196993094 25.831293541188394 21.002331330369945 25.277775099248345 20.999997997284126 Z M 17.49999814563347 27.99999732971217 C 16.949072281949014 27.99999732971217 16.48759106346993 27.831997161734375 16.11555405557907 27.495997190857203 C 15.743517047688211 27.15999721998003 15.556850203374802 26.7446640928708 15.55555390722975 26.249997496605157 C 15.554257611084699 25.755330900339516 15.74092446943262 25.339997773230287 16.11555405557907 25.003997802353116 C 16.490183641725523 24.667997831475944 16.951664860204605 24.49999766349815 17.49999814563347 24.49999766349815 C 18.048331431062334 24.49999766349815 18.51046159090343 24.667997831475944 18.886387466177677 25.003997802353116 C 19.262313341451925 25.339997773230287 19.44833127269871 25.755330900339516 19.44444238403719 26.249997496605157 C 19.440553495375667 26.7446640928708 19.253886636348657 27.160579598282137 18.884442235687867 27.49774622938669 C 18.514997835027078 27.83491286049124 18.05351658757352 28.002330662797988 17.49999814563347 27.99999732971217 Z M 9.722221192018594 27.99999732971217 C 9.171295328334137 27.99999732971217 8.709814109855058 27.831997161734375 8.337777101964198 27.495997190857203 C 7.965740094073339 27.15999721998003 7.779073249759928 26.7446640928708 7.777776953614875 26.249997496605157 C 7.776480657469823 25.755330900339516 7.963147515817747 25.339997773230287 8.337777101964198 25.003997802353116 C 8.712406688110649 24.667997831475944 9.17388790658973 24.49999766349815 9.722221192018594 24.49999766349815 C 10.270554477447458 24.49999766349815 10.732684637288555 24.667997831475944 11.108610512562803 25.003997802353116 C 11.484536387837052 25.339997773230287 11.670554319083832 25.755330900339516 11.666665430422313 26.249997496605157 C 11.662776541760794 26.7446640928708 11.47610968273378 27.160579598282137 11.10666528207299 27.49774622938669 C 10.7372208814122 27.83491286049124 10.275739633958644 28.002330662797988 9.722221192018594 27.99999732971217 Z M 25.277775099248345 27.99999732971217 C 24.72684923556389 27.99999732971217 24.265368017084807 27.831997161734375 23.893331009193947 27.495997190857203 C 23.521294001303087 27.15999721998003 23.33462715698968 26.7446640928708 23.333330860844626 26.249997496605157 C 23.332034564699573 25.755330900339516 23.518701423047496 25.339997773230287 23.893331009193947 25.003997802353116 C 24.267960595340398 24.667997831475944 24.72944181381948 24.49999766349815 25.277775099248345 24.49999766349815 C 25.82610838467721 24.49999766349815 26.288236690151777 24.667997831475944 26.664162565426025 25.003997802353116 C 27.040088440700274 25.339997773230287 27.226108226313585 25.755330900339516 27.222219337652064 26.249997496605157 C 27.218330448990542 26.7446640928708 27.031663589963532 27.160579598282137 26.662219189302743 27.49774622938669 C 26.292774788641953 27.83491286049124 25.831293541188394 28.002330662797988 25.277775099248345 27.99999732971217 Z M 3.8888884768074377 34.99999666214021 C 2.8194441225058107 34.99999666214021 1.9042591885186102 34.657580229513144 1.1433333271521116 33.97274694702654 C 0.382407465785613 33.28791366453994 0.001296296145052209 32.46366361130108 0 31.49999699592619 L 0 6.999999332428042 C 0 6.037499403357563 0.38111120563229395 5.2138325368087255 1.1433333271521116 4.528999254322123 C 1.905555448671929 3.844165971835521 2.820740440608084 3.5011663327569305 3.8888884768074377 3.499999666214021 L 5.8333327152111565 3.499999666214021 L 5.8333327152111565 0 L 9.722221192018594 0 L 9.722221192018594 3.499999666214021 L 25.277775099248345 3.499999666214021 L 25.277775099248345 0 L 29.166663576055782 0 L 29.166663576055782 3.499999666214021 L 31.1111078144595 3.499999666214021 C 32.180552168761125 3.499999666214021 33.09638560949319 3.842999337685171 33.85860773101301 4.528999254322123 C 34.62082985253283 5.214999170959075 35.00129258741199 6.038666089661971 34.99999629126694 6.999999332428042 L 34.99999629126694 31.49999699592619 C 34.99999629126694 32.46249692499667 34.61953359237951 33.28674703038959 33.85860773101301 33.97274694702654 C 33.09768186964651 34.658746863663495 32.1818484868634 35.00116332868312 31.1111078144595 34.99999666214021 L 3.8888884768074377 34.99999666214021 Z M 3.8888884768074377 31.49999699592619 L 31.1111078144595 31.49999699592619 L 31.1111078144595 13.999998664856085 L 3.8888884768074377 13.999998664856085 L 3.8888884768074377 31.49999699592619 Z" fill="rgb(0,0,0)"/>
        </svg>