<svg 
          width="17.141666412353516" 
          height="12.328306198120117" fill="none" 
          xmlns="http://www.w3.org/2000/svg">
          <path d="M 8.57130241394043 2.4662814140319824 C 11.0584135055542 2.466386556625366 13.450420379638672 3.3884692192077637 15.252930641174316 5.041949272155762 C 15.388664245605469 5.1696038246154785 15.605620384216309 5.167994022369385 15.739302635192871 5.038339138031006 L 17.036792755126953 3.774872303009033 C 17.104482650756836 3.7091119289398193 17.142223358154297 3.620035409927368 17.141660690307617 3.5273544788360596 C 17.14109992980957 3.434673309326172 17.10228157043457 3.346029043197632 17.03380012512207 3.2810370922088623 C 12.302787780761719 -1.0936787128448486 4.839068293571472 -1.0936787128448486 0.1080559492111206 3.2810370922088623 C 0.03952397406101227 3.3459808826446533 0.0006397662800736725 3.434598445892334 0.000007823982741683722 3.5272796154022217 C -0.0006241183145903051 3.6199607849121094 0.03704831004142761 3.70906400680542 0.10468876361846924 3.774872303009033 L 1.402553677558899 5.038339138031006 C 1.5361508131027222 5.168189525604248 1.7532739639282227 5.169800758361816 1.888925552368164 5.041949272155762 C 3.6916656494140625 3.3883607387542725 6.083947658538818 2.466275453567505 8.57130241394043 2.4662814140319824 Z M 8.567947387695312 6.686557769775391 C 9.92526626586914 6.686473369598389 11.234148025512695 7.198212623596191 12.240266799926758 8.12234115600586 C 12.376349449157715 8.253496170043945 12.590714454650879 8.250653266906738 12.723368644714355 8.115933418273926 L 14.010649681091309 6.79662561416626 C 14.07844066619873 6.727424144744873 14.116055488586426 6.633546352386475 14.11507797241211 6.535995006561279 C 14.114100456237793 6.438444137573242 14.07461166381836 6.345361232757568 14.005447387695312 6.277572154998779 C 10.941615104675293 3.3867247104644775 6.196879863739014 3.3867247104644775 3.133047580718994 6.277572154998779 C 3.06384015083313 6.345360279083252 3.0243542194366455 6.43848991394043 3.0234458446502686 6.536072254180908 C 3.0225377082824707 6.633655071258545 3.0602831840515137 6.7275238037109375 3.128216505050659 6.79662561416626 L 4.415126323699951 8.115933418273926 C 4.547780990600586 8.250653266906738 4.76214599609375 8.253496170043945 4.898228645324707 8.12234115600586 C 5.903681755065918 7.19882345199585 7.211524963378906 6.687127590179443 8.567947387695312 6.686557769775391 Z M 11.092369079589844 9.480109214782715 C 11.094294548034668 9.585458755493164 11.057232856750488 9.687027931213379 10.989934921264648 9.760835647583008 L 8.813270568847656 12.21556282043457 C 8.749463081359863 12.287705421447754 8.662470817565918 12.328306198120117 8.571701049804688 12.328306198120117 C 8.480932235717773 12.328306198120117 8.393939971923828 12.287705421447754 8.330132484436035 12.21556282043457 L 6.153104782104492 9.760835647583008 C 6.08585262298584 9.686973571777344 6.048856258392334 9.585371971130371 6.0508503913879395 9.480021476745605 C 6.052844524383545 9.37467098236084 6.093652725219727 9.274909019470215 6.163639545440674 9.204290390014648 C 7.553738594055176 7.89039945602417 9.589664459228516 7.89039945602417 10.97976303100586 9.204290390014648 C 11.049701690673828 9.274965286254883 11.09044361114502 9.37475872039795 11.092369079589844 9.480109214782715 Z" fill="rgb(0,0,0)"/>
        </svg>